<svg id="图层_1" data-name="图层 1" xmlns="http://www.w3.org/2000/svg" viewBox="0 0 22 22"><defs><style>.cls-1{fill:#666;}</style></defs><title>图标</title><path class="cls-1" d="M11,1.91a.87.87,0,0,1,.56.2l7.27,6a1,1,0,0,1,.35.76V19.13a.94.94,0,0,1-.91,1H3.73a.94.94,0,0,1-.91-1V8.84a1,1,0,0,1,.35-.76l7.27-6a.87.87,0,0,1,.56-.2M11,1a1.81,1.81,0,0,0-1.14.41l-7.27,6a1.88,1.88,0,0,0-.68,1.46V19.13A1.85,1.85,0,0,0,3.73,21H18.27a1.85,1.85,0,0,0,1.82-1.87V8.84a1.88,1.88,0,0,0-.68-1.46l-7.27-6A1.81,1.81,0,0,0,11,1Z"/></svg>