<svg id="图层_1" data-name="图层 1" xmlns="http://www.w3.org/2000/svg" viewBox="0 0 22 22"><defs><style>.cls-1{fill:#666;}</style></defs><title>图标</title><path class="cls-1" d="M21,21h-.87a9.29,9.29,0,0,0-6.88-9,.43.43,0,0,1-.33-.38.45.45,0,0,1,.24-.44,4.88,4.88,0,0,0,2.62-4.36A4.84,4.84,0,0,0,11,1.89,4.84,4.84,0,0,0,6.22,6.78a4.88,4.88,0,0,0,2.62,4.36.45.45,0,0,1,.24.44.43.43,0,0,1-.33.38,9.29,9.29,0,0,0-6.88,9H1a10.2,10.2,0,0,1,6.61-9.61A5.76,5.76,0,0,1,5.35,6.78,5.72,5.72,0,0,1,11,1a5.72,5.72,0,0,1,5.65,5.78,5.76,5.76,0,0,1-2.26,4.61A10.2,10.2,0,0,1,21,21Z"/></svg>