<svg id="图层_1" data-name="图层 1" xmlns="http://www.w3.org/2000/svg" viewBox="0 0 22 22"><defs><style>.cls-1{fill:#666;}</style></defs><title>图标</title><path class="cls-1" d="M6,19.55a1.44,1.44,0,0,0,2.87,0h0a1.44,1.44,0,1,0-2.87,0Z"/><path class="cls-1" d="M17,19.55a1.44,1.44,0,0,0,2.87,0h0a1.44,1.44,0,1,0-2.87,0Z"/><path class="cls-1" d="M5.26,4.56,19.67,5.63a.43.43,0,0,1,.42.44v9.41a.81.81,0,0,1-.13.45.87.87,0,0,1-.74.42H6.07a.86.86,0,0,1-.86-.85l0-10.94M1.45,1A.44.44,0,0,0,1,1.37a.44.44,0,0,0,.36.52l2.15.37c.48.08.69,1.13.78,1.35a.8.8,0,0,1,0,.32l0,11.56a1.78,1.78,0,0,0,1.77,1.77H19.22a1.79,1.79,0,0,0,1.52-.86,1.77,1.77,0,0,0,.26-.92V6.07a1.35,1.35,0,0,0-1.3-1.35L5.2,3.64c-.11-.74-.61-2.12-1.54-2.27L1.45,1Z"/></svg>