<svg id="图层_1" data-name="图层 1" xmlns="http://www.w3.org/2000/svg" xmlns:xlink="http://www.w3.org/1999/xlink" viewBox="0 0 22 22"><defs><style>.cls-1{fill:url(#未命名的渐变_62);}</style><linearGradient id="未命名的渐变_62" x1="11" y1="21" x2="11" y2="1" gradientUnits="userSpaceOnUse"><stop offset="0" stop-color="#4fb5f0"/><stop offset="1" stop-color="#50e3fa"/></linearGradient></defs><title>图标</title><path class="cls-1" d="M19.41,7.38l-7.27-6a1.78,1.78,0,0,0-2.28,0l-7.27,6a1.88,1.88,0,0,0-.68,1.46V19.13A1.85,1.85,0,0,0,3.73,21H8.27V14.64a.91.91,0,0,1,.91-.91h3.64a.91.91,0,0,1,.91.91V21h4.54a1.85,1.85,0,0,0,1.82-1.87V8.84A1.88,1.88,0,0,0,19.41,7.38Z"/></svg>