<svg id="图层_1" data-name="图层 1" xmlns="http://www.w3.org/2000/svg" viewBox="0 0 22 22"><defs><style>.cls-1{fill:#666;}</style></defs><title>图标</title><path class="cls-1" d="M18.27,2a.85.85,0,0,1,.86.86V19.18a.85.85,0,0,1-.86.86H3.73a.85.85,0,0,1-.86-.86V2.82A.85.85,0,0,1,3.73,2H18.27m0-1H3.73A1.81,1.81,0,0,0,1.91,2.82V19.18A1.81,1.81,0,0,0,3.73,21H18.27a1.81,1.81,0,0,0,1.82-1.82V2.82A1.81,1.81,0,0,0,18.27,1Z"/><rect class="cls-1" x="5.55" y="10.09" width="10.91" height="0.91" rx="0.45"/><rect class="cls-1" x="5.55" y="6.45" width="10.91" height="0.91" rx="0.45"/><rect class="cls-1" x="5.55" y="13.73" width="7.27" height="0.91" rx="0.45"/></svg>