<svg id="图层_1" data-name="图层 1" xmlns="http://www.w3.org/2000/svg" xmlns:xlink="http://www.w3.org/1999/xlink" viewBox="0 0 22 22"><defs><style>.cls-1{fill:url(#未命名的渐变_62);}.cls-2{fill:#fff;}</style><linearGradient id="未命名的渐变_62" x1="11" y1="21" x2="11" y2="1" gradientUnits="userSpaceOnUse"><stop offset="0" stop-color="#4fb5f0"/><stop offset="1" stop-color="#50e3fa"/></linearGradient></defs><title>图标</title><path class="cls-1" d="M18.19,1H14.6a1.82,1.82,0,0,1-1.8,1.82H9.2A1.82,1.82,0,0,1,7.4,1H3.81A1.81,1.81,0,0,0,2,2.81V19.19A1.81,1.81,0,0,0,3.81,21H18.19A1.81,1.81,0,0,0,20,19.19V2.81A1.81,1.81,0,0,0,18.19,1Z"/><rect class="cls-2" x="5.6" y="10.09" width="10.8" height="0.91" rx="0.45"/><rect class="cls-2" x="5.6" y="6.45" width="10.8" height="0.91" rx="0.45"/><rect class="cls-2" x="5.6" y="13.73" width="7.2" height="0.91" rx="0.45"/></svg>