<svg id="图层_1" data-name="图层 1" xmlns="http://www.w3.org/2000/svg" xmlns:xlink="http://www.w3.org/1999/xlink" viewBox="0 0 22 22"><defs><style>.cls-1{fill:#4fb5f0;}.cls-2{fill:url(#未命名的渐变_62);}.cls-3{fill:#fff;}</style><linearGradient id="未命名的渐变_62" x1="11" y1="17.26" x2="11" y2="1" gradientUnits="userSpaceOnUse"><stop offset="0" stop-color="#4fb5f0"/><stop offset="1" stop-color="#50e3fa"/></linearGradient></defs><title>图标</title><path class="cls-1" d="M6,19.55a1.44,1.44,0,0,0,2.87,0h0a1.44,1.44,0,1,0-2.87,0Z"/><path class="cls-1" d="M17,19.55a1.44,1.44,0,0,0,2.87,0h0a1.44,1.44,0,1,0-2.87,0Z"/><path class="cls-2" d="M19.7,4.72,5.2,3.64c-.11-.74-.61-2.12-1.54-2.27L1.45,1A.44.44,0,0,0,1,1.37a.44.44,0,0,0,.36.52l2.15.37c.48.08.69,1.13.78,1.35a.8.8,0,0,1,0,.32l0,11.56a1.78,1.78,0,0,0,1.77,1.77H19.22a1.79,1.79,0,0,0,1.52-.86,1.77,1.77,0,0,0,.26-.92V6.07A1.35,1.35,0,0,0,19.7,4.72Z"/><path class="cls-3" d="M17.69,10H7.77a.5.5,0,0,1-.49-.5A.49.49,0,0,1,7.77,9h9.92a.49.49,0,0,1,.49.5A.5.5,0,0,1,17.69,10Z"/><path class="cls-3" d="M17.69,13.63H7.77a.5.5,0,0,1-.49-.5.49.49,0,0,1,.49-.5h9.92a.49.49,0,0,1,.49.5A.5.5,0,0,1,17.69,13.63Z"/></svg>